<svg width="214" height="214" viewBox="0 0 214 214" fill="none" xmlns="http://www.w3.org/2000/svg">
<path fill-rule="evenodd" clip-rule="evenodd" d="M191.093 130.261C180.913 167.143 147.12 194.228 107 194.228C66.8805 194.228 33.0872 167.143 22.9077 130.261H27.4425C37.4961 164.704 69.3095 189.867 107 189.867C144.69 189.867 176.504 164.704 186.558 130.261H191.093ZM191.093 83.7391C180.913 46.8569 147.12 19.7717 107 19.7717C66.8805 19.7717 33.0872 46.8569 22.9077 83.7391H27.4424C37.4959 49.296 69.3095 24.133 107 24.133C144.691 24.133 176.504 49.296 186.558 83.7391H191.093Z" fill="#FFC72C"/>
<path d="M11.1421 125.027C9.90149 125.027 8.75392 124.717 7.69944 124.097C6.64497 123.476 5.80756 122.639 5.18727 121.585C4.56698 120.53 4.25684 119.382 4.25684 118.142V115.025H11.4677V117.77H30.4486V111.908H11.1421C9.90149 111.908 8.75392 111.598 7.69944 110.978C6.64497 110.357 5.80756 109.535 5.18727 108.512C4.56698 107.458 4.25684 106.295 4.25684 105.023V98.4167C4.25684 97.1449 4.56698 95.9976 5.18727 94.9741C5.80756 93.9198 6.64497 93.0824 7.69944 92.4619C8.75392 91.8414 9.90149 91.5315 11.1421 91.5315H30.8673C32.1078 91.5315 33.2399 91.8414 34.2634 92.4619C35.3178 93.0824 36.1552 93.9198 36.7755 94.9741C37.4268 95.9976 37.7525 97.1449 37.7525 98.4167V101.534H30.4486V98.7889H11.4677V104.651H30.8673C32.1078 104.651 33.2399 104.961 34.2634 105.581C35.3178 106.202 36.1552 107.039 36.7755 108.093C37.4268 109.117 37.7525 110.264 37.7525 111.536V118.142C37.7525 119.382 37.4268 120.53 36.7755 121.585C36.1552 122.639 35.3178 123.476 34.2634 124.097C33.2399 124.717 32.1078 125.027 30.8673 125.027H11.1421ZM49.7609 125.027C48.4893 125.027 47.3263 124.717 46.2718 124.097C45.2483 123.476 44.4264 122.655 43.8061 121.631C43.1858 120.577 42.8757 119.414 42.8757 118.142V98.4167C42.8757 97.1449 43.1858 95.9976 43.8061 94.9741C44.4264 93.9198 45.2483 93.0824 46.2718 92.4619C47.3263 91.8414 48.4893 91.5315 49.7609 91.5315H76.2783V98.7889H51.6218C51.1256 98.7889 50.7379 98.9128 50.4587 99.1611C50.2106 99.4094 50.0866 99.7967 50.0866 100.324V116.235C50.0866 116.731 50.2106 117.118 50.4587 117.398C50.7379 117.646 51.1256 117.77 51.6218 117.77H76.2783V125.027H49.7609ZM87.9209 125.027C86.6805 125.027 85.5332 124.717 84.4783 124.097C83.424 123.476 82.5866 122.639 81.9662 121.585C81.3463 120.53 81.0357 119.382 81.0357 118.142V98.4167C81.0357 97.1449 81.3463 95.9976 81.9662 94.9741C82.5866 93.9198 83.424 93.0824 84.4783 92.4619C85.5332 91.8414 86.6805 91.5315 87.9209 91.5315H107.646C108.887 91.5315 110.019 91.8414 111.042 92.4619C112.097 93.0824 112.935 93.9198 113.554 94.9741C114.206 95.9976 114.531 97.1449 114.531 98.4167V118.142C114.531 119.382 114.206 120.53 113.554 121.585C112.935 122.639 112.097 123.476 111.042 124.097C110.019 124.717 108.887 125.027 107.646 125.027H87.9209ZM88.2466 117.77H107.227V98.7889H88.2466V117.77ZM126.447 125.027C125.206 125.027 124.059 124.717 123.004 124.097C121.95 123.476 121.112 122.639 120.492 121.585C119.872 120.53 119.562 119.382 119.562 118.142V91.5315H126.772V117.77H145.753V91.5315H153.057V118.142C153.057 119.382 152.732 120.53 152.08 121.585C151.46 122.639 150.623 123.476 149.568 124.097C148.545 124.717 147.413 125.027 146.172 125.027H126.447ZM169.625 125.027V98.7889H156.506V91.5315H190.001V98.7889H176.882V125.027H169.625ZM197.714 121.026V114.839H191.666V107.721H197.714V101.627H204.832V107.721H211.066V114.839H204.832V121.026H197.714Z" fill="#FAFAFA"/>
<path fill-rule="evenodd" clip-rule="evenodd" d="M197.547 115.302V122H205.252V115.302H212V107.597H205.252V101H197.547V107.597H191V115.302H197.547Z" fill="#319288"/>
</svg>
